<svg xmlns="http://www.w3.org/2000/svg" width="1080" height="1080">
  <path d="M0 0h1080v1080H0z" fill="none"/>
  <path d="m126.368 201.877 2.013-.004q3.37-.002 6.741.007 2.429 0 4.856-.003 6.698-.002 13.395.007 7.212.005 14.425.002 12.506 0 25.01.008 18.08.011 36.16.012 29.333.004 58.663.019 28.5.014 56.998.02h3.547l17.614.005q73.104.016 146.21.05v52c-6.753 3.376-14.275 3.087-21.48.984-9.072-3.668-9.072-3.668-11.52-6.984v-4c-8.667.319-14.894 1.578-21.625 7.188-4.029 4.77-7.395 9.468-9.812 15.25.746 6.078 5.262 9.35 9.437 13.562a256 256 0 0 1 2.664 3.063c6.51 7.552 13.431 12.674 22.156 17.496L484 302v2c-6.9-.392-11.391-1.787-17.25-5.375-.68-.4-1.361-.8-2.062-1.21A471 471 0 0 1 459 294c-.985-.59-1.97-1.18-2.984-1.79L454 291c-3.519 15.42.607 30.487 6.95 44.547A33.6 33.6 0 0 1 463 342c-4.993-1.277-7.576-3.173-11-7-.46 11.749 2.113 22.606 6.188 33.563l1.21 3.3c2.84 7.557 5.892 14.533 10.602 21.137l1.438 2.035c1.38 1.882 1.38 1.882 3.562 3.965h3c1.41-1.57 1.41-1.57 2.688-3.625 3.51-4.953 7.87-8.654 13.312-11.375 2.04-.07 4.083-.084 6.125-.062L506 384v-15l-6-2c-2.3-2.277-2.3-2.277-4.312-4.937l-2.051-2.653c-3.891-5.73-3.425-12.753-2.637-19.41 2.454-5.155 6.724-8.007 12-10h3l-.027-2.434q-.12-11.365-.18-22.732c-.021-3.895-.05-7.79-.095-11.686q-.063-5.64-.078-11.282a433 433 0 0 0-.043-4.3c-.029-2.01-.03-4.02-.031-6.032l-.027-3.465c.593-3.784 1.75-5.42 4.481-8.069l4-1v273c-15.765 0-15.765 0-19.424-3.274-4.55-5.156-7.355-10.843-10.263-17.038a853 853 0 0 0-2.825-5.926l-1.233-2.627c-1.216-2.424-1.216-2.424-4.255-4.135l-.187 3.875c-.949 8.25-4.584 14.818-11.067 19.969-5.95 3.94-11.724 4.457-18.746 3.156-12.808-7.426-17.683-22.094-22.121-35.348-1.017-4.227-1.224-8.073-1.191-12.402.005-.792.01-1.584.017-2.4.212-10.305 2.492-18.866 9.295-26.85 3.906-3.62 7.046-3.43 12.176-3.3 4.031.429 7.116 1.674 10.824 3.3 1.913.913 1.913.913 4 1 2.278-1.42 2.278-1.42 4.438-3.437 3.953-3.514 3.953-3.514 7.347-3.786L473 443l-.606-1.567c-2.604-7.181-3.375-14.252-4.123-21.818-1.008-8.93-3.514-16.546-8.646-23.99-15.686-23.848-18.588-50.243-19.895-78.125l-.122-2.597a372 372 0 0 1-.179-4.753c-.184-4.639-.728-8.773-2.429-13.15-1.825-1.798-1.825-1.798-4.125-2.937-6.723-4.056-12.094-9.13-15.875-16.063-5.898-2.95-14.914-.946-21.316-.298-16.363 1.63-32.712 1.696-49.142 1.83-3.765.033-7.53.078-11.296.124l-3.466.016c-5.324.067-9.799.225-14.78 2.328-7.3 1.23-12.899-1.068-19-5q-1.818-1.585-3.562-3.25c-3.732-3.481-7.476-3.727-12.438-3.75v4c-9.107-.251-17.63-1.174-26.499-3.202-10.568-2.359-21.274-3.971-31.961-5.691-.765-.125-1.53-.25-2.32-.377a975 975 0 0 0-4.31-.69c-13.226-2.15-13.226-2.15-15.902-5.63-1.899-2.812-1.899-2.812-5.766-3.039a99 99 0 0 0-4.367.067l-2.311.054c-18.205.774-32.832 15.75-44.564 28.508-3.509 4.372-6.278 9.112-9 14a3574 3574 0 0 1-3.5 6l-1.676 2.89a561 561 0 0 1-6.511 10.86c-.37.621-.738 1.243-1.118 1.883-1.082 1.726-1.082 1.726-3.195 4.367h-4v-89c13.365 0 21.637.904 31.855 9.746 1.948 2.047 3.088 3.66 4.145 6.254l-2.3 1.285c-7.962 4.681-7.962 4.681-11.7 12.715l-1 3c6.713-.974 10.596-2.87 15.969-6.926 4.536-3.104 9.405-5.514 14.318-7.965l2.15-1.093 1.934-.96c1.954-1.114 1.954-1.114 3.629-4.056-2.687-1.344-5.206-1.445-8.187-1.812-8.453-1.273-13.44-4.74-20.114-9.918-3.564-2.664-6.106-2.312-10.511-2.207-14.783.133-28.718-2.6-40.895-11.438C93 220 93 220 93 215l16 2-1-1a100 100 0 0 1 0-5c4.33.52 7.085 1.507 10.75 3.813 7.573 4.006 15.666 4.757 24.085 5.805 8.615 1.104 8.615 1.104 12.212 2.921 4.705 2.328 9.645 2.3 14.828 2.649l3.242.248q3.94.298 7.883.564c3.478 7.209 6.145 14.204 8 22h6c.283-4.741-.522-7.829-2.5-12.125-1.727-3.77-2.5-5.658-2.5-9.875 3.792-1.209 7.564-1.166 11.502-1.19l2.28-.025q2.455-.025 4.912-.045 3.947-.034 7.894-.077 7.032-.074 14.064-.137 12.409-.114 24.817-.245l2.722-.028c18.276-.197 36.541-.667 54.809-1.253-13.415-5.64-26.88-6.297-41.258-6.224h-4.73q-5.048-.002-10.095.01c-5.325.013-10.65.006-15.975-.005-15.132-.028-30.264-.04-45.396-.011q-12.572.025-25.142-.018-7.935-.024-15.87.02c-3.29.011-6.579-.002-9.868-.024q-2.28-.007-4.563.018c-12.906.13-12.906.13-17.437-3.625-2.54-2.682-4.614-5.021-4.791-8.828L118 203c2.833-1.416 5.199-1.124 8.368-1.123" fill="#060606"/>
  <path d="m857 606 2.401.697c49.537 14.408 81.292 53.873 106.816 96.343a652 652 0 0 0 3.564 5.847l1.649 2.687 1.456 2.354c1.587 2.952 1.947 4.816 1.114 8.072-3.388 4.552-7.502 6.876-13 8-8.625.871-15.856-.111-23.965-3.125-7.8-2.249-14.573.157-22.097 2.375l-3.409.976a762 762 0 0 0-13.4 3.954c-14.822 4.478-30.231 7.122-45.504 9.57l-2.173.35c-21.552 3.304-44.09 3.45-65.452-1.1l-2.463-.52c-22.159-4.855-38.29-15.942-54.537-31.48l-2.344-2.137C724 707 724 707 724 704h5v-3h-14q-.185-8.434-.275-16.87-.037-2.87-.102-5.738c-.06-2.751-.09-5.5-.111-8.251l-.078-2.59c-.003-5.958-.003-5.958 2.975-9.061 2.085-1.199 4.03-2.276 6.279-3.115 3.325-1.133 3.325-1.133 5.312-3.375a90 90 0 0 0 1-6c-6.902 1.85-12.069 4.717-17.75 9l-2.36 1.743C703.009 661.88 696.433 667.314 690 673l-2.738 2.402A451 451 0 0 0 680 682l-2.008 1.844c-5.708 5.454-10.64 11.603-15.282 17.98C661 704 661 704 658.773 706.234c-8.76 9.609-7.993 19.41-7.757 31.875q.013 3.208.017 6.416.021 6.692.123 13.384c.085 5.705.118 11.408.131 17.114.016 5.466.06 10.933.104 16.399.005 1.034.01 2.069.017 3.135.02 2.94.061 5.88.109 8.82l.01 2.605c.177 8.375 2.475 14.448 8.098 20.83q1.347 1.552 2.691 3.106l1.364 1.556c2.02 2.336 3.946 4.745 5.883 7.151 4.317 5.28 8.815 10.36 13.437 15.375l1.583 1.72q2.641 2.864 5.292 5.717l1.637 1.771q1.679 1.8 3.41 3.547C697 869 697 869 698.997 871.752c3.97 4.928 7.289 8.277 13.727 9.257 5.845.504 11.682.39 17.542.276q3.246-.007 6.494-.004c4.52-.006 9.036-.05 13.555-.122 5.783-.09 11.564-.106 17.347-.096 4.463.002 8.926-.027 13.388-.065q3.198-.025 6.397-.027c2.98-.009 5.957-.056 8.937-.115l2.648.013c5.647-.167 8.47-1.415 12.399-5.514 2.78-2.4 6.068-2.174 9.55-2.082l2.228-.003q2.313.007 4.626.058c2.358.047 4.711.04 7.07.027q2.256.018 4.513.043l2.125-.005c3.269.095 5.196.424 7.898 2.317 1.864 2.738 2.074 4.243 2.09 7.536l.016 3.037-.047 3.154.047 3.143-.016 3.041-.013 2.764c-.69 3.489-2.046 5.079-4.518 7.615-2.594.635-2.594.635-5.59.648l-3.45.052-3.772-.021-3.982.036c-3.604.031-7.207.03-10.81.022a1814 1814 0 0 0-9.035.018c-7.11.025-14.22.024-21.329.007-7.323-.018-14.646.009-21.969.057q-9.443.058-18.884.043c-3.757-.005-7.513 0-11.269.03-3.536.03-7.071.023-10.608-.009a312 312 0 0 0-5.72.043c-7.056-.103-11.018-.977-16.013-6.111L703 899l-1.599-1.736c-1.413-1.551-2.753-3.147-4.088-4.764l-3.086-3.664-1.593-1.9c-2.783-3.298-5.616-6.553-8.447-9.811l-1.68-1.937q-4.02-4.638-8.07-9.25c-6.808-7.772-13.568-15.588-20.062-23.625-3.937-4.868-8.117-9.446-12.406-14-2.756-3.238-3.095-5.732-3.123-9.838l-.026-2.812-.013-3.079-.025-3.248q-.036-5.336-.055-10.672l-.017-3.687q-.039-9.67-.06-19.34-.02-7.986-.082-15.97c-.05-6.435-.074-12.87-.081-19.306a1034 1034 0 0 0-.046-7.336c-.16-17.24 1.093-29.579 11.184-44.025l1.6-2.329c29.617-42.486 71.422-69.617 121.575-81.154a271 271 0 0 0 6.321-1.583c24.58-5.917 53.779-5.382 77.879 2.066" fill="#060606"/>
  <path d="m620.028 201.76 4.243-.006c3.868-.004 7.735.004 11.603.014 4.178.009 8.355.006 12.533.004q10.848-.001 21.696.017c10.457.016 20.913.021 31.37.024q25.448.007 50.897.036a82530 82530 0 0 0 67.807.05q63.412.032 126.823.101l1 6-2.437 1.875c-2.602 1.867-2.602 1.867-3.563 4.125l2.816.113c12.279.653 12.279.653 18.184 3.887.294 5.006.118 7.992-3 12-4 3-4 3-14 3v120c-3-1-3-1-4.5-3.598-5.98-13.815-7.586-27.774-9.38-42.606-2.444-22.677-2.444-22.677-12.12-42.796v-2l-3.054.063c-3.783.074-7.567.119-11.35.157q-2.445.03-4.888.082c-9.35.195-17.266.28-25.708-4.302-8.79-4.308-15.41-2.935-24.422-.105l-3.038.94c-11.514 3.66-22.64 8.224-33.79 12.852q-4.626 1.905-9.254 3.802-2.84 1.166-5.674 2.34a472 472 0 0 1-13.667 5.413l-2.63.993c-4.12 1.249-8.068 1.235-12.337 1.077l-2.444-.029c-3.232-.06-6.275-.195-9.46-.79-3.427-.514-6.621-.585-10.086-.543l-1.98.019q-2.119.021-4.237.048-3.394.038-6.79.059c-6.433.042-12.867.089-19.3.17-23.796.294-47.296.07-69.953-8.246l-2.924-1c-5.578-1.95-10.79-4.243-16.014-7l-.406 3.508c-3.573 28.294-15.825 54.523-27.668 80.148l-1.516 3.287q-1.432 3.094-2.882 6.18c-4.981 10.706-6.23 20.514-7.208 32.211-.827 8.704-2.389 16.964-6.422 24.81-1.83 3.783-1.345 7.413-.127 11.346 1.09 2.92 2.245 5.809 3.417 8.697C593.23 461.643 596.25 485.143 599 510l.411 3.65c5.091 47.124 2.727 98.508-12.85 143.559-3.181 9.232-4.265 17.548-4.358 27.303-.081 4.42-1.048 8.23-2.203 12.488-.316 3.797-.085 7.45.497 11.218.546 4.108.7 8.094.741 12.231l.03 2.43c.308 31.849-3.739 61.917-13.018 92.496-3.054 10.106-4.433 19.52-4.625 30.062l-.08 2.564c-.035 13.92 6.588 26.034 12.643 38.186q1.118 2.27 2.232 4.542 3.268 6.645 6.58 13.271c.04 2 .043 4 0 6h-3l-1 3c-2.125 0-2.125 0-5-1-3.72-3.807-6-6.582-6-12 2.962.613 4.38 1.254 7 3l-1.687-3.121a518 518 0 0 1-14.39-28.938c-.936-1.968-1.948-3.885-2.966-5.812-9.243-18.513-5.465-37.531.474-56.402 3.9-12.405 6.423-24.903 8.569-37.727l.536-3.12c1.407-8.27 2.596-16.257 2.562-24.661l-.005-2.118c-.005-2.2-.018-4.4-.03-6.601q-.009-2.257-.014-4.516-.017-5.492-.049-10.984l-3 3c-.268-7.682.482-14.67 2-22.188 2.403-12.954 2.936-24.58.145-37.568-1.724-8.323-1.878-16.77-2.145-25.244 3.214 3.536 4.132 7.464 5.188 12l.537 2.156c.822 3.406 1.275 6.32 1.275 9.844h2l.352-3.781c.63-5.66 1.796-11.163 3.023-16.719l.633-2.973c.973-4.455 2.02-8.796 3.52-13.105 5.918-17.154 5.836-35.312 5.785-53.235l-.008-3.078q-.02-4.376-.067-8.754l-.023-2.68-.038-2.487-.03-2.167c-.153-2.108-.614-3.979-1.147-6.021a214 214 0 0 1-.395-6.695q-.098-2.033-.199-4.066l-.105-2.154c-1.228-24.015-5.12-46.767-11.303-69.992l-.597-2.272a387 387 0 0 0-1.131-4.203c-1.128-4.295-1.438-8.187-1.27-12.618l-2.25 1.5C568 447 568 447 564 447c-.219-33.78 1.647-58.226 17-89 4.376-8.82 8.096-17.264 10-27l-2.55.656c-9.096 2.04-17.877 2.673-27.2 2.719l-3.404.041c-7.517-.04-14.749-.78-21.846-3.416l-1-2 2.408.063c25.629 1.46 25.629 1.46 49.002-7.508 6.132-5.996 8.377-13.652 10.903-21.618 4.561-14.313 10.366-26.71 21.167-37.332 2.545-2.445 2.545-2.445 4.07-5.117 1.675-2.703 2.634-3.948 5.45-5.488 6.42-.992 16.057-1.972 22 1v2l-2.59 1.023-3.347 1.352c-1.103.44-2.205.882-3.34 1.336-2.835 1-2.835 1-3.723 3.289l2.09.367 2.848.508 2.777.492c3.285.633 3.285.633 7.031 1.68 6.86 1.532 13.923 1.325 20.917 1.324 2.436.004 4.87.04 7.306.078 11.58.084 21.916-1.218 32.587-6.064 3.42-1.375 5.66-1.749 9.307-1.713l3.186.015 3.264.063 3.322.016c8.055.08 8.055.08 10.365 1.234v2q-4.059 1.264-8.125 2.5l-2.305.723c-4.32 1.303-8.003 2.069-12.57 1.777v2l2.86-.07c13.43-.19 25.3 2.157 38.14 6.07v-2l3.734-.113c21.64-.792 40.56-7.963 60.274-16.59C857.306 241.865 857.306 241.865 871 245a63 63 0 0 1 8.527 4.59c4.715 2.689 9.623 2.578 14.961 2.726l2.131.063q3.346.097 6.694.183l4.556.131q5.565.16 11.131.307v-2l-2.812-.125c-6.632-.922-13.728-4.91-18.188-9.875.527-1.809.527-1.809 2-4a69 69 0 0 1 7.563-3.063l2.056-.736q2.108-.749 4.229-1.46 2.102-.721 4.162-1.56c7.725-2.99 15.75-2.9 23.943-3.19 1.942-.073 3.883-.17 5.824-.268l3.477-.133c2.886-.29 2.886-.29 4.135-2.635L956 222l-2.684.016c-29.769.153-29.769.153-41.666-.771-12.594-.844-24.325.263-36.712 2.317l-2.485.402c-21.386 3.465-42.383 8.38-63.198 14.391-7.208 2.06-14.45 4.001-21.69 5.947-2.347.639-4.687 1.3-7.026 1.968-14.51 4.053-24.626 4.144-37.746-3.118L739 241c-22.359-12.035-46.217-17.472-71-22l1.094 1.828 1.406 2.422 1.406 2.39C673 228 673 228 673 232c-4.135-.93-6.611-2.394-9.625-5.25-15.936-14.463-37.757-15.014-58.082-14.051-5.714.522-10.652 2.156-15.988 4.176-7.8 2.655-14.707 1.6-22.22-1.262-5.945-1.748-11.771.697-17.085 3.387l-2.344 1.309c-5.48 2.984-10.363 5.358-16.656 3.691-4.141-2.458-7.26-5.46-9-10-.125-2.75-.125-2.75 0-5l1.766.437c10.378 2.35 19.8 3.142 29.234-2.437l1-1c2.003.066 4.003.204 6 .375 1.18.1 2.362.199 3.578.3 2.731.26 5.45.554 8.172.887 8.215.895 14.216.45 22.063-2.492 8.862-2.975 16.926-3.352 26.215-3.31" fill="#060606"/>
  <path d="M429.207 516.086c2.556 1.303 3.18 3.395 4.453 5.863 2.891 4.426 7.597 8.68 12.34 11.051 7.725.952 12.967.272 19.258-4.395 1.965-1.684 1.965-1.684 3.742-4.605 6.125-.437 6.125-.437 9 1 .61 31.575-1.862 62.372-8.562 93.313-3.101 15.178-4.627 30.895-5 46.375-.04.83-.078 1.659-.118 2.514-.027 5.73 1.55 8.764 5.29 13.082 3.711 4.58 2.803 11.16 2.39 16.716-1.312 3.688-1.312 3.688-3 7-2.525 6.284-3.591 12.252-4 19l2.625.063c7.938 2.205 11.75 11.57 15.738 18.242 2.805 5.641 3.292 11.368 1.453 17.394q-.885 2.504-1.824 4.989l-.977 2.73a953 953 0 0 1-3.14 8.582 3485 3485 0 0 0-4.07 11.25l-.999 2.76c-5.257 14.665-9.03 28.15-9.156 43.807a301 301 0 0 1-.082 4.453c-.23 8.995.18 16.023 4.29 24.267 1.79 3.86 1.877 6.275 1.142 10.463-2.056 2.635-4.336 4.471-6.937 6.543L461 880.25l-1.937 1.516c-5.995 6.494-8.912 15.383-12.112 23.48-3.499 8.605-3.499 8.605-6.951 11.754-2.723.523-2.723.523-6.062.375l-3.946-.133-2.305-.114a685 685 0 0 0-9.68-.37c-6.67-.228-13.338-.485-20.007-.758-1.433-2.866-1.306-4.813-1-8 2.727-4.557 6.008-8.469 9.5-12.437 8.769-10.111 17.06-20.571 25.125-31.25l1.543-2.035 1.434-1.915 1.26-1.678c5.551-8.218 2.983-17.813 1.45-27.06-1.985-12.651-3.507-25.338-4.937-38.062l-.315-2.789a3033 3033 0 0 1-1.775-16.135q-.286-2.648-.58-5.295c-1.175-10.581-1.997-20.937-1.83-31.594l.027-3.484A1432 1432 0 0 1 428 726h19l2-9-2.437.375c-6.21-.654-10.78-4.5-15-8.937-3.227-5.033-3.837-9.021-3.813-15l-.016-3.942c.254-3.335.786-4.645 2.266-7.496.976-7.995.224-15.257-2.125-22.937-10.747-35.24-13.222-72.776-14.578-109.368l-.094-2.518A644 644 0 0 1 413 540l-.066-2.716-.038-2.695-.04-2.437c.32-4.77 3.15-7.232 6.496-10.328 6.856-5.855 6.856-5.855 9.855-5.738" fill="#060606"/>
  <path d="m813.313 621.625 3.344.029c16.537.306 31.219 4.702 43.402 16.307 9.749 10.21 14.376 22.333 14.305 36.345-.38 15.762-7.253 30.33-18.134 41.612-10.85 10.13-24.63 12.83-39.032 12.599-15.772-.615-31.397-5.304-43.682-15.599A38.3 38.3 0 0 1 769 707l-1.113-1.75c-1.138-2.038-2.016-4.083-2.887-6.25l-1.352-3.242c-5.71-15.091-5.285-29.01 1.352-43.758 6.807-12.954 16.434-23.882 30.582-28.672 5.913-1.677 11.618-1.784 17.73-1.703" fill="#E1E1E2"/>
  <path d="M920.59 601.385c3.542 3.13 6.984 6.357 10.41 9.615l2.14 1.945c17.098 16.055 32.551 42.145 34.036 65.864.01 2.064-.071 4.129-.176 6.191-4.108-3.883-7.42-8.067-10.75-12.625A342 342 0 0 0 929 640l-1.595-1.682c-21.15-22.166-47.543-38.7-77.592-45.568l-2.158-.495c-10.373-2.225-20.814-2.442-31.388-2.44a766 766 0 0 1-6.199-.04c-40.37-.172-85.51 17.108-116.466 43.045C692 634 692 634 690 634c.195-5.682 4.03-8.556 7.875-12.25l2.066-2.018c5.432-5.25 11.026-10.178 17.059-14.732l1.571-1.197c56.903-43.055 145.782-51.4 202.019-2.418" fill="#060606"/>
  <path d="M552 493h2c.501 6.767-.645 12.05-4 18a46 46 0 0 1-5.316 5.137c-4.441 4.914-5.227 11.003-5.782 17.34l-.24 2.419c-.253 2.575-.49 5.152-.725 7.729l-.512 5.375q-.381 3.967-.75 7.935c-.405 4.33-.84 8.65-1.374 12.967-1.391 11.477-1.508 22.926-1.551 34.473l-.016 2.458c-.053 10.585.575 20.697 2.266 31.167l.38 2.565c1.25 8.314 2.967 15.979 5.835 23.896 1.04 3.362 1.102 6.055.785 9.539h3l.25-2.375c.75-2.625.75-2.625 2.813-3.937L551 667c-.509 2.8-1.136 5.418-2.016 8.129-1.11 4.365-1.366 8.265-1.359 12.746l-.004 2.509c.108 6.452 1.252 12.242 2.947 18.443 1.87 7.11 1.816 13.854 1.432 21.173l-3-1c-.879-2.871-.879-2.871-1.562-6.437-.74-4.789-.74-4.789-3.438-8.563a2467 2467 0 0 0-3.437 9.625l-.987 2.738c-7.497 21.177-3.367 42.906 3.752 63.618 6.403 19.245 4.592 38.603-3.328 57.019a215 215 0 0 1-2.312 4.313c-1.979 3.915-2.68 7.376-1.688 11.687 2.632 6.435 6.053 12.3 10 18 1.479 4.437.969 8.947.785 13.576-.095 4.913.463 8.176 3.215 12.424 5.06 4.94 11.105 7.038 18 8v-5l-5-1-1-3c2.858-.238 5.198-.422 8 0 3.046 2.59 3.857 4.204 4.563 8.125C574 917 574 917 572.125 918.875c-5.713 2.057-10.496 2.361-16.09-.27a201 201 0 0 1-6.058-3.726c-3.544-2.237-7.214-3.991-11.016-5.738C537 908 537 908 535 905c-.24-2.11-.24-2.11-.238-4.535l-.039-2.69-.035-2.837c-.266-9.029-1.548-15.218-6.907-22.622-3.092-4.605-3.705-8.99-3.578-14.507 1.199-5.73 3.972-10.35 7.063-15.277 7.1-11.417 7.684-26 5.265-39.063-1.698-6.971-4.172-13.695-6.6-20.438-10.388-28.942-5.654-47.75 6.101-75.552 3.99-10.22 2.821-19.198-1.359-29.074q-1.372-3.12-2.749-6.237c-4.068-9.263-6.829-18.293-8.924-28.168l-.442-2.085c-3.663-18.332-2.941-37.041-2.822-55.638.019-3.526.023-7.051.027-10.577.021-18.254.185-36.47 1.237-54.7l2.511-.944c13.82-5.283 22.434-13.52 28.489-27.056" fill="#060606"/>
  <path d="M457.922 217.91c5.234 1.853 10.654 2.935 16.078 4.09l-1 3.188c-1.152 4.382-1.152 4.382-1 8.812 1.473 1.634 1.473 1.634 3 3l-2.309.445C459.87 240.231 452.917 246.685 444 256c-6.982 7.13-12.512 11.351-22.75 12.375-9.47-.31-20.59-5.715-27.25-12.375.494 4.278 1.048 7.096 3 11h-59l-1-17-4-7v-3c13.73-4.165 27.487-8.22 41.337-11.965q1.965-.532 3.927-1.072c1.844-.506 3.69-1 5.537-1.494l3.192-.862c3.083-.622 5.87-.717 9.007-.607l-1.496 2.23-1.942 2.958-1.933 2.917c-1.544 2.745-2.227 4.8-2.629 7.895h2l.75-2.187c2.633-5.925 6.707-9.152 12.188-12.375l2.005-1.186c15.54-8.874 36-12.72 52.979-6.342" fill="#E1E1E2"/>
  <path d="M831 531v23l-6.848.332c-30.93 1.552-60.947 3.694-89.152 17.668l-2.252 1.093C715.456 581.55 700.393 592.283 686 605l-2.637 2.266C659.003 628.529 644.71 655.196 636 686h-1c-.437-9.643.726-18.264 3-27.625l.472-1.978c2.733-11.371 6.35-21.919 11.528-32.397l1.038-2.179c20.367-42.536 62.42-65.532 105.354-80.939 6.11-2.067 12.312-3.497 18.608-4.882q2.94-.808 5.875-1.625c16.481-4.032 33.275-3.61 50.125-3.375" fill="#060606"/>
  <path d="M818.918 626.734c13.703.095 24.844 6.33 34.77 15.453 8.819 9.238 12.785 20.018 12.818 32.565-.215 8.57-2.88 15.576-6.506 23.248l-1.277 2.938c-5.59 11.144-17.681 15.443-28.825 19.25C826 721 826 721 815 721v-25l-9-2c-2.812-1.875-2.812-1.875-5-4l-2.25-2.125c-3.403-3.646-3.152-7.032-3.082-11.848.553-5.039 2.143-9.073 5.332-13.027 4.035-2.714 8.333-3.845 13-5l.06-2.63q.118-4.826.257-9.65.058-2.09.105-4.179c.045-2 .105-4.001.164-6.002l.095-3.65c.359-3.248.824-4.682 4.237-5.155" fill="#060606"/>
  <path d="M428.11 526.95c2.337 1.298 3.517 2.74 5.14 4.862 4.467 5.238 8.105 7.813 15.055 8.528 7.253.195 12.945-.825 19.695-3.34.373 22.831-.532 45.39-3.875 68l-.452 3.125c-1.305 8.2-3.014 16.887-7.673 23.875h-2c-.116-13.368-.006-26.703.5-40.062.45-11.685.45-11.685.688-23.375l.042-3.497c-.25-3.333-.938-5.987-2.23-9.066l-2-1c.01.824.02 1.648.032 2.497.34 31.04-2.774 60.525-9.157 90.94l-.769 3.702-.739 3.42c-.215 1.003-.43 2.007-.653 3.04C439 661 439 661 437 663c-1.859-5.023-2.799-9.977-3.656-15.238l-.448-2.668q-.703-4.202-1.396-8.407-.694-4.187-1.396-8.374-.435-2.598-.861-5.196c-.643-3.853-1.356-7.644-2.282-11.44-1.287-5.664-1.612-11.373-1.996-17.157l-.253-3.55c-.265-3.72-.52-7.438-.774-11.158q-.389-5.595-.785-11.188a2406 2406 0 0 1-.481-6.942c-.347-4.954-.762-9.794-1.672-14.682q-.278-3.777-.375-7.562l-.148-3.88C421 532 421 532 423.273 528.974 426 527 426 527 428.11 526.949" fill="#E1E1E2"/>
  <path d="M201 234h97c-1.325 3.312-2.328 5.746-4.172 8.637l-1.254 1.986q-1.346 2.1-2.697 4.195c-2.545 3.973-4.743 7.936-6.815 12.182-1.612 2.657-2.326 3.768-5.308 4.707-6.815.273-13.676-1.506-20.328-2.855-4.702-.936-9.43-1.615-14.176-2.29A474 474 0 0 1 222.063 257l-2.529-.467c-4.345-.862-8.022-1.676-11.534-4.533-1.766-2.707-1.766-2.707-3.25-5.812l-1.516-3.083C202 240 202 240 201 234" fill="#E1E1E2"/>
  <path d="M919 735c-.337 3.704-2.172 5.427-4.897 7.806l-1.665 1.381-1.736 1.452C904.01 751.051 896.65 755.111 889 759l-2.828 1.457c-5.462 2.639-11.134 4.686-16.86 6.668l-2.065.733c-14.483 4.835-28.804 5.719-43.934 5.642l-2.806-.005c-13.666-.058-26.592-.603-39.507-5.495l-2.187-.811c-4.74-1.81-9.293-3.888-13.813-6.189l-3.23-1.617C752.703 754.48 743.934 747.53 738 739c4.812.627 8.601 2.665 12.875 4.813 7.855 3.79 15.578 6.377 24.125 8.187l2.944.629c47.708 10.08 91.411 3.443 135.725-16.73C916 735 916 735 919 735" fill="#060606"/>
  <path d="M886 651c3.077 1.215 6.062 2.476 9 4v2l1.715.742c2.692 1.482 4.615 3.272 6.847 5.383 4.419 4.072 9.033 7.57 13.993 10.953 3.657 2.875 6.022 5.6 7.445 10.047 0 10.328-5.786 18.077-12 25.875l-3-1-1-2-3 3-1-3-.953 2.45-1.297 3.237-1.266 3.2C898.511 722.122 894.3 726.218 888 729c-3-.187-3-.187-5-1 2.575-2.727 4.986-4.99 8.125-7.062 2.7-1.82 4.253-3.145 5.875-5.938v-3l-1.723 2.012c-4.462 5.103-8.65 9.236-14.277 12.988l-1.812 2.125c-6.096 5.225-14.539 5.314-22.188 4.875 1.188-3.563 1.868-3.74 5-5.562 10.402-6.754 16.315-16.139 21-27.438l.783-1.851c6.27-15.37 5.552-32.098 2.217-48.149" fill="#E1E1E2"/>
  <path d="M437 734q6.029-.26 12.06-.385 2.05-.052 4.097-.143c11.33-.492 11.33-.492 15.028 2 1.534 1.776 2.678 3.481 3.815 5.528q1.185 1.658 2.375 3.313c2.657 5.11 2.668 10.107 1.067 15.604-6.165 18.565-6.165 18.565-11.442 22.083l-.168-2.231q-.38-5.01-.77-10.019l-.263-3.512-.264-3.379-.238-3.11c-.254-2.355-.705-4.465-1.297-6.749a145 145 0 0 1-.062-6.25l.027-3.266L461 741l-2 1-.06 2.753c-.387 16.996-.928 33.93-2.205 50.887-.877 11.776-1.349 23.559-1.735 35.36l-8 1c-2.503-3.754-2.544-7.003-2.875-11.375q-.242-2.835-.492-5.672l-.288-3.271c-.62-6.628-1.354-13.243-2.078-19.86q-.4-3.675-.797-7.35c-.7-6.485-1.402-12.968-2.173-19.445-1.218-10.384-1.522-20.573-1.297-31.027" fill="#E1E1E2"/>
  <path d="M504 434h2v90h-6c-2.897-6.076-4.986-12.078-6.75-18.562-4.113-14.271-11.124-26.507-18.657-39.233l-1.37-2.318-1.227-2.056c-2.168-3.985-2.08-7.38-1.996-11.831 5.99-.315 9.636.318 15 3l1-14 5.625.313c4.188.024 6.81.017 10-2.813z" fill="#E1E1E2"/>
  <path d="M129 217q30.734-.07 61.468-.104 14.272-.014 28.544-.047 12.447-.03 24.895-.037 6.584-.003 13.167-.023 6.212-.02 12.425-.015 2.265 0 4.53-.012c11.963-.059 24.18.148 35.346 4.863l3.273 1.352L315 224v1c-26.978.81-53.95 1.258-80.94 1.532q-7.494.079-14.99.161-14.535.159-29.07.307.932 2.876 1.875 5.75l1.055 3.234c.959 2.933.959 2.933 2.226 5.203 1.28 2.749.497 4.94-.156 7.813h-6c-2.408-4.357-3.904-8.677-5.254-13.437-.839-2.882-1.783-5.72-2.746-8.563l-1.953-.028a900 900 0 0 1-8.922-.222l-3.07-.043c-6.262-.2-10.98-1.228-16.688-3.776-3.718-1.463-7.41-1.727-11.367-1.994a84 84 0 0 1-8-.937z" fill="#E1E1E2"/>
  <path d="m766 627-2.562 2.625c-14.213 16.766-15.693 37.92-14.188 58.852 1.69 13.063 7.752 27.678 17.75 36.523l-1 2c-8.964-2.279-18.937-7.76-25-15-1.335-3.784-2.042-7.275-2.312-11.25-.28-3.797-.28-3.797-2.813-5.5L733 694c-9.331-4.993-9.331-4.993-11-10a140 140 0 0 1-.062-6.187l.027-3.293L722 672q4.438-.04 8.875-.062l2.55-.026 2.442-.01 2.254-.016C740 672 740 672 742 673l-.063-3.026c-.073-3.723-.119-7.447-.157-11.17q-.03-2.413-.082-4.825a517 517 0 0 1-.089-6.956l-.062-2.16c-.002-5.1 1.208-7.964 4.453-11.863 3.242-1.898 3.242-1.898 6.875-3.375l3.617-1.523c3.409-1.07 5.967-1.33 9.508-1.102" fill="#E1E1E2"/>
  <path d="M440.938 454.438c5.758 1.057 8.929 4.054 12.25 8.687 6.7 10.886 7.778 23.93 5.05 36.34-1.643 4.84-3.293 8.171-7.238 11.535-3.312.813-3.312.813-7 0-8.46-7.054-11.861-19.458-13-30-.83-17.305-.83-17.305 4.25-23.937C438 455 438 455 440.938 454.438" fill="#E1E1E2"/>
  <path d="M850 630c11.549 7.04 18.841 17.685 23.14 30.363 3.678 15.564-.372 30.952-8.156 44.59-7.734 11.875-17.129 18.9-30.984 22.047-2.613.026-4.461-.308-7-1l-1-6 3.402-1.102c7.603-2.53 14.586-4.877 21.032-9.796C852 708 852 708 854 708l.816-2.14c1.228-2.966 2.642-5.763 4.121-8.61A810 810 0 0 0 862 691l1.059-2.148c3.866-9.361 3.501-22.088-.121-31.414C857.516 646.41 848.3 636.222 837 631c-3.308-.91-6.603-1.534-10-2v-3c9.103-3.034 14.77-.277 23 4" fill="#E1E1E2"/>
  <path d="M318 240c4.482 2.377 8.379 5.626 11 10 .898 6.322.846 12.695-3 18-5.557 5.015-9.34 5.467-16.723 5.41-4.166-.521-6.142-1.694-8.976-4.71-3.622-4.731-4.876-8.628-4.649-14.528.972-6.073 5.697-9.708 10.348-13.172 4.114-1.371 7.707-1.742 12-1" fill="#E1E1E2"/>
  <path d="M458.918 676.906c3.643 2.807 5.196 5.662 6.082 10.094.54 5.726-.247 10.935-3 16-3.396 3.733-6.649 5.692-11.562 6.813-5.991-1.416-8.946-5.695-12.375-10.563-1.585-4.848-2.079-9.22-1.063-14.25 4.641-7.773 13.024-12.296 21.918-8.094" fill="#E1E1E2"/>
  <path d="m805.75 632.938 2.422.027L810 633c.108 1.915.186 3.833.25 5.75l.14 3.234c-.48 3.711-1.514 4.718-4.39 7.016l-2.75 1.813c-2.75 1.85-4.774 3.646-7.125 5.937-2.797 2.503-4.519 3.721-8.312 3.75-2.955-.387-5.891-.916-8.813-1.5v20l-6-1c-.59-14.344 2.674-23.658 12.281-34.598 6.211-6.366 11.336-10.599 20.469-10.465" fill="#060606"/>
  <path d="M138.188 231.313c6.262 1.129 10.68 4.86 15.437 8.937 4.875 3.592 10.489 3.99 16.36 4.309 2.476.542 3.406 1.531 5.015 3.441-4.246 3.686-8.828 6.231-13.75 8.875-4.996 2.708-9.835 5.4-14.437 8.75-3.777 2.657-6.259 2.956-10.813 2.375.417-5.312 1.153-8.252 5-12 6.956-5 6.956-5 10-5a235 235 0 0 0-5-5l-1.867-1.82c-4.25-3.953-7.403-6.106-13.133-7.18 2.13-3.407 3.187-4.825 7.188-5.687" fill="#E1E1E2"/>
  <path d="M836 640c8.818 1.653 13.843 7.125 18.938 14.25 4.777 7.01 4.795 13.417 4.062 21.75-2.636 10.815-7.415 21.74-17 28-3.875.813-3.875.813-7 1l1.137-1.285c9.599-11.002 15.049-20.545 14.375-35.512-.803-8.933-5.54-16.02-11.996-21.996-1.519-1.295-1.519-1.295-3.516-2.207z" fill="#E1E1E2"/>
  <path d="M314 245c4.421 1.65 7.345 3.018 10 7 .22 4.787-.181 9.4-2.375 13.688-4.446 2.222-8.778 2.074-13.625 1.312-3.37-1.162-3.78-1.879-6-5-1.068-5.685-1.073-10.309 2.063-15.25 3.768-2.245 5.6-2.412 9.937-1.75" fill="#060606"/>
  <path d="M931 691c3.714 2.359 6.907 4.626 9.813 7.938l1.769 1.964c1.606 2.377 2.04 4.277 2.418 7.098l-2.719.813c-7.986 2.508-15.347 5.47-22.736 9.42-4.124 2.179-8.016 3.629-12.545 4.767 5.458-6.438 5.458-6.438 8.086-9.164C921.694 706.903 926.324 699.29 931 691" fill="#E1E1E2"/>
  <path d="M563 363h1c.803 12.46-1.291 23.412-4.427 35.44-1.283 5.733-1.725 11.38-1.89 17.244l-.062 2.122q-.096 3.314-.183 6.632l-.131 4.529q-.16 5.516-.307 11.033c-3.89-3.581-4.81-7.4-5.186-12.545-.083-2.905-.087-5.8-.064-8.705l-.023-2.95c.027-10.225 2.14-19.808 4.648-29.675l.653-2.595A324 324 0 0 1 563 363" fill="#2E2E2E"/>
  <path d="m433 513 2 2.063 1.406 1.359a67 67 0 0 1 3.25 3.469c4.042 4.212 6.95 5.62 12.844 5.797 5.776-.303 9.63-1.633 14.5-4.688l2 4c-2.942 4.236-6.075 7.335-11 9-5.96.96-11.258 1.1-16.312-2.5A79 79 0 0 1 438 528l-2.078-2.004c-3.689-3.827-3.689-3.827-4.922-5.996.26-2.694.793-4.587 2-7" fill="#E1E1E2"/>
  <path d="M456 681c3.71 3.237 4.816 4.69 5.5 9.563-.523 3.593-1.308 5.57-3.5 8.437-3.192 1.596-6.535 1.515-10 1-2.431-1.87-3.64-3.281-5-6-.414-4.654.19-7.252 3-11 3.765-2.51 5.543-2.615 10-2" fill="#060606"/>
  <path d="M783 673c2.375-.125 2.375-.125 5 0 2.268 2.268 2.352 3.063 2.875 6.125 1.475 6.96 3.28 11.88 9.375 15.875 3.611 2.42 3.611 2.42 4.266 5.148-.016 2.227-.016 2.227-.516 5.852-5.272-.377-8.54-2.094-12-6-6.042-8.424-9.568-16.591-9-27" fill="#060606"/>
  <path d="M451 228v2l-1.721.12c-14.6 1.069-27.684 2.147-40.06 10.708-2.596 1.37-4.325 1.396-7.219 1.172 11.522-14.771 31.16-22.738 49-14" fill="#060606"/>
  <path d="M777 686h3l.848 2.563c2.382 6.74 4.703 11.877 9.797 16.949C792 707 792 707 792 709l12 3v6c-5.926-.409-9.205-1.248-14-5l-2.937-2.187C782.19 706.686 778.52 701.28 775 696c-.452-6.323-.452-6.323 2-10" fill="#060606"/>
  <path d="m501.25 211.875 2.703.055L506 212c-.078 1.754-.078 1.754-1 4a69 69 0 0 1-6.75 3.938c-5.891 3.05-10.997 5.9-13.562 12.375L484 235l-7-3c.446-4.905 2.7-8.474 6-12 2.868-2.239 5.851-4.18 9-6l1.95-1.16c2.552-1.046 4.552-1.037 7.3-.965" fill="#E1E1E2"/>
  <path d="m463 686 2 1c.368 5.762-.205 10.857-3 16-3.396 3.733-6.649 5.692-11.562 6.813-4.786-1.132-7.624-3.818-10.438-7.813v-3l3.395.105q2.208.043 4.418.082l2.236.077c4.116.1 4.116.1 7.826-1.452 1.403-2.26 2.375-4.51 3.313-7l1.042-2.73z" fill="#E1E1E2"/>
  <path d="m301 261 3 2.438c4.032 3.073 7.45 3.155 12.41 2.937 3.288-.476 5.756-1.675 8.59-3.375h3c-1.353 4.427-3.233 6.363-7 9-4.472 2.236-10.16 1.61-15 1-3.046-1.49-5.057-3.226-7-6-.937-2.875-.937-2.875-1-5z" fill="#E1E1E2"/>
  <path d="m451 555 3 1c1.888 4.26 2.244 7.942 2.188 12.563l-.02 1.968c-.173 12.16-.705 24.318-1.168 36.469h-1v-30h-2l-1 3z" fill="#060606"/>
  <path d="m849 683 4 2v2l2 1c-3.377 6.26-6.68 12.336-13 16-2.443.711-4.432.895-7 1l1.137-1.285c5.752-6.593 10.075-12.352 12.863-20.715" fill="#E1E1E2"/>
  <path d="m466 521 3 4c-2.922 4.208-6.07 7.409-11 9-4.025.317-7.972.238-12 0 2-2 2-2 5.625-2.125L455 532l1-4h-6l-1-2 1.941-.078c6.118-.401 9.972-1.493 15.059-4.922" fill="#E1E1E2"/>
  <path d="M851 665c2.438.375 2.438.375 5 1 1.501 3.003 1.184 6.085 1.188 9.375l.037 2.04c.01 3.704-.185 6.44-2.225 9.585-2 0-2 0-3.645-1.422-2.065-3.928-1.425-7.497-1.043-11.828l.186-2.547c.153-2.069.326-4.136.502-6.203" fill="#E1E1E2"/>
  <path d="M777 656c2.136 3.204 2.242 3.996 2.195 7.668l-.02 2.705-.05 2.814-.027 2.85A917 917 0 0 1 779 679l-6-1c-.317-7.71-.378-13.974 3-21z" fill="#060606"/>
  <path d="M549 707c2.836 5.294 3.136 9.79 3.063 15.75l-.014 2.113q-.02 2.57-.049 5.137l-3-1c-.879-2.8-.879-2.8-1.562-6.312-.77-3.879-1.457-7.244-3.438-10.688z" fill="none"/>
  <path d="m898 712 4 1c-2.048 7.338-5.603 11.274-12.027 15.129C888 729 888 729 885 728.812l-2-.812c2.575-2.727 4.986-4.99 8.125-7.062 3.796-2.559 5.437-4.623 6.875-8.938" fill="#E1E1E2"/>
  <path d="M455 603h2l.184 3.98.253 5.207.12 2.62c.172 3.458.347 6.736 1.06 10.13.383 2.063.383 2.063-.93 4.875L456 632h-2q-.042-6.125-.062-12.25l-.026-3.512-.01-3.379-.016-3.11c.1-2.425.415-4.436 1.114-6.749" fill="#E1E1E2"/>
  <path d="M522 432c3.875.875 3.875.875 5 2 .203 2.145.203 2.145.25 4.813l.078 2.644c-.389 3.013-1.24 4.368-3.328 6.543h-2c-2.52-3.78-2.467-7.617-2-12 1-2.5 1-2.5 2-4" fill="#060606"/>
  <path d="M570 900c4.716.887 7.949 3.343 11 7 .438 3.375.438 3.375 0 6-2.125 0-2.125 0-5-1-3.72-3.807-6-6.582-6-12" fill="#060606"/>
  <path d="M581 304h2c.481 4.907.718 7.974-2.187 12.125C578 318 578 318 575.188 317.813L573 317l-1-4 3.375-1.125c3.239-1.354 3.518-1.637 5.063-5.062z" fill="#060606"/>
  <path d="M804 699h1c.288 3.051.414 5.957 0 9-2 2.188-2 2.188-5 3-2.837-.378-5.252-1.115-8-2v-2c2.625-1.625 2.625-1.625 6-3 3.375.813 3.375.813 6 2z" fill="#E1E1E2"/>
  <path d="M908 696c2.59 2.59 2.374 4.027 2.625 7.625l.227 3.04L911 709l-2-2-3 3-2-11z" fill="#E1E1E2"/>
  <path d="m865 661 7 1 1 6-1.812.438c-1.75.45-3.475.99-5.188 1.562z" fill="#E1E1E2"/>
  <path d="M897 711c.66 1.777.66 1.777 1 4-2.71 4.904-6.867 7.922-12 10 0-3 0-3 2.125-5.312L891 717q1.662-1.65 3.313-3.312z" fill="#E1E1E2"/>
  <path d="M567 637c2.666 3.555 3.414 4.702 4.188 8.75l.48 2.422L572 650l-3 1v5h-1z" fill="none"/>
  <path d="m837 625-2 5-8-1v-3c6.625-2.125 6.625-2.125 10-1" fill="#E1E1E2"/>
  <path d="m324 254 5 4c-.187 2.375-.187 2.375-1 5-2.562 1.313-2.562 1.313-5 2-1.316-2.633-.748-3.802-.062-6.625l.59-2.477z" fill="#E1E1E2"/>
  <path d="m296 252 1 4h2v2h2v-6h1v9l-5 2c-1.203-2.405-1.1-3.95-1.062-6.625l.027-2.477z" fill="#E1E1E2"/>
  <path d="m413 231 2 1-1.312 1.46-1.688 1.915-1.687 1.898c-1.515 1.63-1.515 1.63-1.313 3.727l-7 1c3.381-4.136 6.666-7.813 11-11" fill="#060606"/>
  <path d="m766 627-6 7-5-5c3.83-1.802 6.781-2.196 11-2" fill="#E1E1E2"/>
  <path d="M886 651c3.083 1.199 6.063 2.477 9 4v2l-7 1c-1.46-2.647-2-3.894-2-7" fill="#E1E1E2"/>
  <path d="m476 298 8 4v2c-1.46-.114-2.917-.242-4.375-.375l-2.46-.21C475 303 475 303 473 301z" fill="none"/>
  <path d="m863 728 .875 1.875c1.062 2.258 1.062 2.258 3.125 4.125h-10c1.245-3.736 2.634-4.188 6-6" fill="#E1E1E2"/>
  <path d="m836 640 7 2-4 5-4-3z" fill="#E1E1E2"/>
  <path d="M297 250h4v8h-2v-2h-2z" fill="#E1E1E2"/>
  <path d="M496 212h10l-1 4-2 1c-2.475-1.114-4.679-2.582-7-4z" fill="#E1E1E2"/>
  <path d="m448 527 8 1-1 3h-6z" fill="#060606"/>
</svg>
